<svg xmlns="http://www.w3.org/2000/svg" viewBox="0 0 92.14 84.88"><defs><style>.cls-1{fill:none;stroke:#fff;stroke-miterlimit:10;stroke-width:3px;}.cls-2{fill:#fff;}</style></defs><title>thumb-up</title><g id="Layer_2" data-name="Layer 2"><g id="Layer_1-2" data-name="Layer 1"><rect class="cls-1" x="1.5" y="35.63" width="28.84" height="47.75" rx="4.52"/><path class="cls-2" d="M30.51,79.16s46.34,1.26,49.82-.66c6.74-3.72,2.39-9.78,2.39-9.78,7.89-2.84,4.34-11,4.34-11s3.11-2,3.2-5.45c.12-4.23-2.18-5.4-.64-7.37,2.1-2.69,6.41-14.42-5.44-12.82-6.56.89-15.19.59-20.47.28a3.75,3.75,0,0,1-3.35-4.86c1.83-5.85,4.77-15.68,4.91-18.81.32-7-10.79-15.49-13.46,0-3,17.25-21.62,30.6-21.62,30.6l.21,4.49Z"/></g></g></svg>