<?xml version="1.0" encoding="utf-8"?>
<!-- Generator: Adobe Illustrator 23.0.1, SVG Export Plug-In . SVG Version: 6.00 Build 0)  -->
<svg version="1.1" id="Layer_1" xmlns="http://www.w3.org/2000/svg" xmlns:xlink="http://www.w3.org/1999/xlink" x="0px" y="0px"
	 viewBox="0 0 100 100" style="enable-background:new 0 0 100 100;" xml:space="preserve">
<style type="text/css">
	.st0{fill:none;stroke:#DE732C;stroke-miterlimit:10;}
	.st1{fill:none;stroke:#DE732C;stroke-width:2.5;stroke-miterlimit:10;}
</style>
<path class="st0" d="M58.61,61.74"/>
<path class="st1" d="M61,55.95l-37.15-2.8c-1.76-0.13-3.17-1.49-3.38-3.24l-2.48-21.1c-0.23-1.93,1.26-3.63,3.2-3.67l52.27-1.09
	L61,55.95z M90.54,6.73l-9.81,2.04c-1.09,0.23-1.99,1-2.38,2.05l-4.66,12.75 M19.42,71.01h46.11c0.7,0,1.38-0.26,1.9-0.73l1.42-1.28
	c1.41-1.27,1.48-3.46,0.15-4.82L61,55.95"/>
<circle class="st1" cx="62.58" cy="82.81" r="6.3"/>
<circle class="st1" cx="27.26" cy="82.81" r="6.3"/>
</svg>
